HIERARCHY
ROOT Hips
{
    OFFSET 0.000000 0.000000 0.000000
    CHANNELS 6 Xposition Yposition Zposition Zrotation Xrotation Yrotation
    JOINT Spine
    {
        OFFSET -0.000001 7.589425 -0.000003
        CHANNELS 3 Zrotation Xrotation Yrotation
        JOINT Spine1
        {
            OFFSET 0.000001 20.705608 0.000005
            CHANNELS 3 Zrotation Xrotation Yrotation
            JOINT Neck
            {
                OFFSET 0.000001 22.671068 0.000008
                CHANNELS 3 Zrotation Xrotation Yrotation
                JOINT Head
                {
                    OFFSET -0.000001 14.202753 1.753903
                    CHANNELS 3 Zrotation Xrotation Yrotation
                    End Site
                    {
                        OFFSET 0.000000 17.539078 0.000000
                    }
                }
            }
            JOINT LeftShoulder
            {
                OFFSET 3.507710 20.072397 0.015149
                CHANNELS 3 Zrotation Xrotation Yrotation
                JOINT LeftArm
                {
                    OFFSET 14.017495 -0.000005 -0.000004
                    CHANNELS 3 Zrotation Xrotation Yrotation
                    JOINT LeftForeArm
                    {
                        OFFSET 28.079792 0.000000 0.000004
                        CHANNELS 3 Zrotation Xrotation Yrotation
                        JOINT LeftHand
                        {
                            OFFSET 26.998001 0.000000 -0.000005
                            CHANNELS 3 Zrotation Xrotation Yrotation
                            JOINT LeftHandThumb1
                            {
                                OFFSET 1.832828 -2.082771 2.915865
                                CHANNELS 3 Zrotation Xrotation Yrotation
                                JOINT LeftHandThumb2
                                {
                                    OFFSET 2.768220 -0.000002 -0.000001
                                    CHANNELS 3 Zrotation Xrotation Yrotation
                                    JOINT LeftHandThumb3
                                    {
                                        OFFSET 2.366021 -0.000001 -0.000001
                                        CHANNELS 3 Zrotation Xrotation Yrotation
                                        End Site
                                        {
                                            OFFSET 2.074890 0.000000 0.000000
                                        }
                                    }
                                }
                            }
                            JOINT LeftHandIndex1
                            {
                                OFFSET 7.497959 0.000002 2.915873
                                CHANNELS 3 Zrotation Xrotation Yrotation
                                JOINT LeftHandIndex2
                                {
                                    OFFSET 4.165532 -0.000003 -0.000004
                                    CHANNELS 3 Zrotation Xrotation Yrotation
                                    JOINT LeftHandIndex3
                                    {
                                        OFFSET 2.082767 -0.000004 -0.000004
                                        CHANNELS 3 Zrotation Xrotation Yrotation
                                        End Site
                                        {
                                            OFFSET 1.826493 0.000000 0.000000
                                        }
                                    }
                                }
                            }
                            JOINT LeftHandMiddle1
                            {
                                OFFSET 7.497960 0.000003 0.966408
                                CHANNELS 3 Zrotation Xrotation Yrotation
                                JOINT LeftHandMiddle2
                                {
                                    OFFSET 4.582080 0.000000 -0.000000
                                    CHANNELS 3 Zrotation Xrotation Yrotation
                                    JOINT LeftHandMiddle3
                                    {
                                        OFFSET 2.499322 0.000002 0.000006
                                        CHANNELS 3 Zrotation Xrotation Yrotation
                                        End Site
                                        {
                                            OFFSET 2.191788 0.000000 0.000000
                                        }
                                    }
                                }
                            }
                            JOINT LeftHandRing1
                            {
                                OFFSET 7.081404 -0.000001 -0.966406
                                CHANNELS 3 Zrotation Xrotation Yrotation
                                JOINT LeftHandRing2
                                {
                                    OFFSET 4.165527 0.000002 -0.000001
                                    CHANNELS 3 Zrotation Xrotation Yrotation
                                    JOINT LeftHandRing3
                                    {
                                        OFFSET 2.082769 -0.000002 -0.000004
                                        CHANNELS 3 Zrotation Xrotation Yrotation
                                        End Site
                                        {
                                            OFFSET 1.826493 0.000000 0.000000
                                        }
                                    }
                                }
                            }
                            JOINT LeftHandPinky1
                            {
                                OFFSET 6.664851 0.000002 -2.915867
                                CHANNELS 3 Zrotation Xrotation Yrotation
                                JOINT LeftHandPinky2
                                {
                                    OFFSET 3.332420 0.000001 -0.000005
                                    CHANNELS 3 Zrotation Xrotation Yrotation
                                    JOINT LeftHandPinky3
                                    {
                                        OFFSET 1.666207 -0.000000 0.000005
                                        CHANNELS 3 Zrotation Xrotation Yrotation
                                        End Site
                                        {
                                            OFFSET 1.461189 0.000000 0.000000
                                        }
                                    }
                                }
                            }
                        }
                    }
                }
            }
            JOINT RightShoulder
            {
                OFFSET -3.507709 20.072401 0.015150
                CHANNELS 3 Zrotation Xrotation Yrotation
                JOINT RightArm
                {
                    OFFSET -14.017495 -0.000001 0.000001
                    CHANNELS 3 Zrotation Xrotation Yrotation
                    JOINT RightForeArm
                    {
                        OFFSET -28.079802 -0.000001 -0.000006
                        CHANNELS 3 Zrotation Xrotation Yrotation
                        JOINT RightHand
                        {
                            OFFSET -26.998001 -0.000001 0.000001
                            CHANNELS 3 Zrotation Xrotation Yrotation
                            JOINT RightHandThumb1
                            {
                                OFFSET -1.832830 -2.082770 2.915869
                                CHANNELS 3 Zrotation Xrotation Yrotation
                                JOINT RightHandThumb2
                                {
                                    OFFSET -2.768218 0.000000 0.000001
                                    CHANNELS 3 Zrotation Xrotation Yrotation
                                    JOINT RightHandThumb3
                                    {
                                        OFFSET -2.366019 0.000002 0.000001
                                        CHANNELS 3 Zrotation Xrotation Yrotation
                                        End Site
                                        {
                                            OFFSET -2.074890 0.000000 0.000000
                                        }
                                    }
                                }
                            }
                            JOINT RightHandIndex1
                            {
                                OFFSET -7.497958 -0.000001 2.915874
                                CHANNELS 3 Zrotation Xrotation Yrotation
                                JOINT RightHandIndex2
                                {
                                    OFFSET -4.165531 -0.000001 -0.000002
                                    CHANNELS 3 Zrotation Xrotation Yrotation
                                    JOINT RightHandIndex3
                                    {
                                        OFFSET -2.082768 0.000003 0.000003
                                        CHANNELS 3 Zrotation Xrotation Yrotation
                                        End Site
                                        {
                                            OFFSET -1.826493 0.000000 0.000000
                                        }
                                    }
                                }
                            }
                            JOINT RightHandMiddle1
                            {
                                OFFSET -7.497960 0.000000 0.966408
                                CHANNELS 3 Zrotation Xrotation Yrotation
                                JOINT RightHandMiddle2
                                {
                                    OFFSET -4.582078 0.000001 0.000001
                                    CHANNELS 3 Zrotation Xrotation Yrotation
                                    JOINT RightHandMiddle3
                                    {
                                        OFFSET -2.499319 0.000000 -0.000000
                                        CHANNELS 3 Zrotation Xrotation Yrotation
                                        End Site
                                        {
                                            OFFSET -2.191788 0.000000 0.000000
                                        }
                                    }
                                }
                            }
                            JOINT RightHandRing1
                            {
                                OFFSET -7.081398 0.000000 -0.966401
                                CHANNELS 3 Zrotation Xrotation Yrotation
                                JOINT RightHandRing2
                                {
                                    OFFSET -4.165531 -0.000001 0.000002
                                    CHANNELS 3 Zrotation Xrotation Yrotation
                                    JOINT RightHandRing3
                                    {
                                        OFFSET -2.082768 -0.000003 -0.000003
                                        CHANNELS 3 Zrotation Xrotation Yrotation
                                        End Site
                                        {
                                            OFFSET -1.826493 0.000000 0.000000
                                        }
                                    }
                                }
                            }
                            JOINT RightHandPinky1
                            {
                                OFFSET -6.664851 0.000001 -2.915867
                                CHANNELS 3 Zrotation Xrotation Yrotation
                                JOINT RightHandPinky2
                                {
                                    OFFSET -3.332419 0.000001 -0.000004
                                    CHANNELS 3 Zrotation Xrotation Yrotation
                                    JOINT RightHandPinky3
                                    {
                                        OFFSET -1.666207 -0.000000 -0.000000
                                        CHANNELS 3 Zrotation Xrotation Yrotation
                                        End Site
                                        {
                                            OFFSET -1.461189 0.000000 0.000000
                                        }
                                    }
                                }
                            }
                        }
                    }
                }
            }
        }
    }
    JOINT LeftUpLeg
    {
        OFFSET 8.769538 0.000000 -0.000003
        CHANNELS 3 Zrotation Xrotation Yrotation
        JOINT LeftLeg
        {
            OFFSET 0.000000 -41.816307 0.000004
            CHANNELS 3 Zrotation Xrotation Yrotation
            JOINT LeftFoot
            {
                OFFSET -0.000000 -40.119503 0.000001
                CHANNELS 3 Zrotation Xrotation Yrotation
                JOINT LeftToeBase
                {
                    OFFSET 0.000001 -5.700201 13.154301
                    CHANNELS 3 Zrotation Xrotation Yrotation
                    End Site
                    {
                        OFFSET 0.000000 0.000000 3.507816
                    }
                }
            }
        }
    }
    JOINT RightUpLeg
    {
        OFFSET -8.769538 -0.000000 0.000003
        CHANNELS 3 Zrotation Xrotation Yrotation
        JOINT RightLeg
        {
            OFFSET 0.000000 -41.816296 -0.000002
            CHANNELS 3 Zrotation Xrotation Yrotation
            JOINT RightFoot
            {
                OFFSET 0.000000 -40.119495 -0.000001
                CHANNELS 3 Zrotation Xrotation Yrotation
                JOINT RightToeBase
                {
                    OFFSET 0.000002 -5.700199 13.154301
                    CHANNELS 3 Zrotation Xrotation Yrotation
                    End Site
                    {
                        OFFSET 0.000000 0.000000 3.507816
                    }
                }
            }
        }
    }
}
MOTION
Frames:    5
Frame Time:    0.004167
-4.322559    88.718193    141.505676    12.404172    -15.171672    160.031052    -1.575563    -6.991799    -12.732801    -5.285734    8.990995    -11.746072    -15.071512    10.786632    20.407246    2.642498    -11.818877    17.705433    11.535662    -7.216058    -12.086070    -54.868660    23.889778    -64.871445    0.398495    0.568996    -35.006271    1.709351    0.630525    0.936365    21.891005    46.525490    -61.162529    -22.867783    -4.684808    22.867790    -0.000000    0.000000    -0.000000    -6.022230    17.906982    -15.316020    -5.729494    -0.000005    -0.000001    -5.729495    0.000005    0.000002    -5.729496    0.000011    -8.586943    -5.729493    -0.000007    -0.000002    -5.729495    -0.000000    -0.000000    -5.729494    0.000005    5.724633    -5.729495    -0.000002    0.000000    -5.729495    -0.000002    -0.000001    -6.022232    -17.906963    9.591399    -5.729494    -0.000005    -0.000001    -5.729494    -0.000005    -0.000001    -15.201476    -0.354538    -12.850866    38.745087    0.807162    0.475957    1.735160    7.766840    -12.634597    6.832728    7.243889    -5.275168    -21.891016    46.525490    61.162529    22.867792    -4.684812    -22.867786    -0.000000    0.000000    -0.000000    6.022223    17.906969    15.316027    5.729493    -0.000001    0.000005    5.729491    -0.000002    0.000001    5.729496    0.000003    8.586942    5.729493    0.000000    0.000005    5.729495    0.000002    0.000002    5.729496    0.000001    -5.724634    5.729494    -0.000002    -0.000006    5.729496    0.000002    0.000004    6.022233    -17.906971    -9.591388    5.729495    -0.000001    -0.000005    5.729496    0.000001    0.000002    24.769245    -15.082127    35.676296    -0.000000    33.115185    0.000001    2.395181    -21.323563    26.427841    -0.000000    -1.147537    -0.000006    -12.697034    -19.666660    4.270473    -0.000003    0.682797    -0.000001    19.180866    24.889038    -22.488785    -0.000000    3.372777    0.000002    
-4.318457    88.749886    141.436691    12.584440    -15.238231    160.292297    -1.574931    -6.993484    -12.724911    -5.303523    8.992615    -11.735676    -15.065120    10.837797    20.397495    2.637237    -11.786383    17.687784    11.645644    -7.376581    -12.090389    -54.751240    23.642691    -65.070236    0.407514    0.579814    -35.102020    1.751487    0.643585    0.982859    21.890993    46.525505    -61.162540    -22.867785    -4.684810    22.867790    -0.000000    0.000000    -0.000000    -6.022231    17.906971    -15.316042    -5.729495    0.000001    -0.000000    -5.729496    0.000008    0.000003    -5.729494    0.000006    -8.586955    -5.729495    -0.000007    0.000000    -5.729496    0.000007    0.000001    -5.729492    -0.000003    5.724640    -5.729495    -0.000006    0.000000    -5.729495    0.000007    0.000000    -6.022233    -17.906973    9.591412    -5.729494    -0.000015    0.000001    -5.729496    -0.000004    0.000001    -15.438081    -0.444762    -12.871735    38.353943    0.653382    0.462198    1.746093    7.795232    -12.667143    6.853971    7.268852    -5.305603    -21.891006    46.525501    61.162556    22.867783    -4.684810    -22.867783    -0.000000    0.000000    -0.000000    6.022222    17.906979    15.316059    5.729495    -0.000000    -0.000002    5.729491    0.000000    0.000008    5.729492    0.000003    8.586959    5.729492    -0.000002    -0.000008    5.729496    0.000005    0.000009    5.729494    0.000001    -5.724638    5.729494    0.000002    0.000017    5.729496    -0.000002    -0.000010    6.022233    -17.906975    -9.591404    5.729495    0.000002    -0.000000    5.729494    -0.000001    -0.000007    24.890902    -15.121840    35.533291    -0.000000    33.062172    -0.000001    2.388438    -21.317852    26.337463    0.000000    -1.129836    0.000007    -12.786055    -19.724276    4.114288    0.000003    0.574424    0.000001    19.209986    25.259457    -22.565006    0.000003    3.484147    0.000001    
-4.312487    88.779816    141.366043    12.766045    -15.303243    160.556641    -1.575158    -6.999061    -12.716943    -5.323196    8.994366    -11.724834    -15.056076    10.897576    20.366018    2.629248    -11.751041    17.647156    11.760778    -7.539571    -12.096372    -54.623119    23.391809    -65.263123    0.411595    0.583696    -35.190853    1.795950    0.648199    1.033839    21.890993    46.525513    -61.162563    -22.867792    -4.684812    22.867792    -0.000000    0.000000    -0.000000    -6.022232    17.906979    -15.316064    -5.729496    0.000007    0.000002    -5.729494    -0.000003    -0.000002    -5.729494    0.000005    -8.586965    -5.729494    -0.000014    -0.000003    -5.729495    -0.000004    0.000001    -5.729494    0.000008    5.724646    -5.729495    -0.000007    -0.000000    -5.729493    0.000010    -0.000000    -6.022228    -17.906973    9.591427    -5.729494    -0.000004    -0.000001    -5.729496    -0.000000    -0.000001    -15.677034    -0.534258    -12.884920    37.967705    0.493805    0.457606    1.759392    7.824444    -12.714724    6.881593    7.294436    -5.341502    -21.890993    46.525513    61.162575    22.867790    -4.684814    -22.867792    -0.000000    0.000000    -0.000000    6.022228    17.906967    15.316076    5.729495    0.000002    -0.000002    5.729497    0.000001    0.000001    5.729491    0.000002    8.586970    5.729494    0.000001    0.000001    5.729495    -0.000001    -0.000006    5.729494    0.000001    -5.724644    5.729495    0.000002    0.000004    5.729493    -0.000002    -0.000006    6.022229    -17.906975    -9.591427    5.729494    0.000001    0.000000    5.729494    0.000001    0.000003    25.014496    -15.163676    35.387550    -0.000000    33.014034    -0.000001    2.372634    -21.296782    26.235941    -0.000000    -1.115539    -0.000004    -12.874633    -19.779772    3.958634    0.000007    0.463826    0.000000    19.263205    25.574429    -22.652798    -0.000001    3.590180    -0.000000    
-4.300419    88.804985    141.289429    12.949306    -15.366594    160.824402    -1.576673    -7.009931    -12.709771    -5.345305    8.994143    -11.714556    -15.048872    10.968611    20.359173    2.623757    -11.709479    17.629225    11.866996    -7.697531    -12.097537    -54.501091    23.153835    -65.457718    0.411020    0.581530    -35.253235    1.847316    0.645150    1.084193    21.890993    46.525539    -61.162601    -22.867790    -4.684810    22.867790    -0.000000    0.000000    -0.000000    -6.022230    17.906977    -15.316078    -5.729495    -0.000003    -0.000000    -5.729494    0.000004    0.000003    -5.729495    0.000003    -8.586974    -5.729495    0.000007    0.000001    -5.729493    -0.000003    -0.000001    -5.729496    -0.000005    5.724656    -5.729495    0.000004    0.000001    -5.729496    0.000001    0.000000    -6.022232    -17.906986    9.591443    -5.729496    0.000002    -0.000000    -5.729493    0.000006    -0.000000    -15.913814    -0.620257    -12.898481    37.579884    0.337394    0.454489    1.773419    7.857576    -12.760870    6.905666    7.324671    -5.372467    -21.890980    46.525536    61.162582    22.867794    -4.684809    -22.867786    -0.000000    0.000000    -0.000000    6.022238    17.906982    15.316071    5.729493    0.000000    0.000000    5.729496    0.000001    0.000004    5.729495    0.000000    8.586980    5.729492    -0.000002    -0.000005    5.729492    -0.000002    -0.000009    5.729494    -0.000001    -5.724656    5.729496    0.000001    0.000000    5.729493    -0.000002    -0.000003    6.022230    -17.906981    -9.591449    5.729495    0.000001    0.000003    5.729493    0.000001    -0.000003    25.144657    -15.202133    35.246056    0.000001    32.972652    0.000000    2.358376    -21.290478    26.128700    0.000000    -1.104694    0.000006    -12.960092    -19.831907    3.813325    -0.000003    0.357448    -0.000000    19.307951    25.869280    -22.731094    -0.000000    3.702209    0.000002    
-4.284414    88.834053    141.210205    13.133922    -15.430631    161.100403    -1.577977    -7.020435    -12.701604    -5.361120    8.989177    -11.704701    -15.040570    11.036228    20.344177    2.610786    -11.665285    17.602654    11.979137    -7.854070    -12.096757    -54.377880    22.923899    -65.652039    0.411371    0.580861    -35.307285    1.901588    0.643846    1.135952    21.890993    46.525543    -61.162624    -22.867790    -4.684812    22.867792    -0.000000    0.000000    -0.000000    -6.022231    17.906981    -15.316102    -5.729494    -0.000002    0.000001    -5.729496    0.000011    0.000005    -5.729496    0.000009    -8.586983    -5.729492    -0.000008    -0.000003    -5.729495    0.000012    0.000002    -5.729496    0.000007    5.724659    -5.729494    0.000003    0.000001    -5.729494    -0.000001    -0.000000    -6.022232    -17.906975    9.591455    -5.729495    0.000002    0.000001    -5.729495    0.000005    -0.000000    -16.151297    -0.695509    -12.905778    37.194027    0.183969    0.453266    1.788752    7.894590    -12.809692    6.924814    7.359110    -5.402303    -21.890999    46.525555    61.162624    22.867783    -4.684811    -22.867790    -0.000000    0.000000    -0.000000    6.022231    17.906979    15.316098    5.729495    -0.000000    -0.000006    5.729496    0.000001    -0.000002    5.729494    -0.000002    8.586990    5.729492    -0.000002    -0.000004    5.729495    0.000001    0.000002    5.729496    -0.000001    -5.724662    5.729493    -0.000001    -0.000001    5.729494    0.000002    0.000009    6.022231    -17.906977    -9.591455    5.729496    0.000001    0.000006    5.729494    -0.000003    -0.000007    25.280170    -15.242972    35.104282    -0.000000    32.930302    0.000002    2.350883    -21.295687    26.026718    0.000000    -1.091146    -0.000003    -13.042885    -19.879705    3.684233    -0.000003    0.253218    0.000000    19.315849    26.142082    -22.749876    0.000000    3.801816    -0.000005    
